<svg width="125" height="125" viewBox="0 0 125 125" fill="none" xmlns="http://www.w3.org/2000/svg">
<path d="M54.7075 42.1877C54.5858 42.8486 53.8598 43.2037 53.2633 42.8941L34.512 33.1599C33.6453 32.71 32.7137 33.6416 33.1637 34.5082L42.9014 53.2626C43.2111 53.859 42.8561 54.5851 42.1951 54.7068L4.81883 61.5919C3.72706 61.793 3.72705 63.3576 4.81883 63.5588L42.1922 70.4437C42.8531 70.5655 43.2082 71.2915 42.8985 71.888L33.1638 90.6373C32.7138 91.5039 33.6454 92.4355 34.5121 91.9856L53.2623 82.2507C53.8588 81.9411 54.5848 82.2961 54.7065 82.9571L61.5916 120.332C61.7927 121.423 63.3573 121.423 63.5585 120.332L70.4444 82.9551C70.5662 82.2942 71.2921 81.9391 71.8886 82.2488L90.641 91.9856C91.5077 92.4356 92.4393 91.5041 91.9894 90.6374L82.2561 71.8869C81.9465 71.2905 82.3015 70.5645 82.9624 70.4428L120.332 63.5587C121.423 63.3576 121.423 61.7929 120.332 61.5918L82.9595 54.7068C82.2986 54.5851 81.9437 53.8591 82.2533 53.2626L91.9894 34.5082C92.4393 33.6415 91.5078 32.71 90.6412 33.1599L71.8876 42.896C71.2912 43.2056 70.5652 42.8506 70.4434 42.1896L63.5585 4.81882C63.3573 3.72706 61.7927 3.72707 61.5916 4.81883L54.7075 42.1877Z" fill="white"/>
<mask id="mask0_444_2" style="mask-type:luminance" maskUnits="userSpaceOnUse" x="4" y="4" width="118" height="118">
<path d="M54.7075 42.1877C54.5858 42.8486 53.8598 43.2037 53.2633 42.8941L34.512 33.1599C33.6453 32.71 32.7137 33.6416 33.1637 34.5082L42.9014 53.2626C43.2111 53.859 42.8561 54.5851 42.1951 54.7068L4.81883 61.5919C3.72706 61.793 3.72705 63.3576 4.81883 63.5588L42.1922 70.4437C42.8531 70.5655 43.2082 71.2915 42.8985 71.888L33.1638 90.6373C32.7138 91.5039 33.6454 92.4355 34.5121 91.9856L53.2623 82.2507C53.8588 81.9411 54.5848 82.2961 54.7065 82.9571L61.5916 120.332C61.7927 121.423 63.3573 121.423 63.5585 120.332L70.4444 82.9551C70.5662 82.2942 71.2921 81.9391 71.8886 82.2488L90.641 91.9856C91.5077 92.4356 92.4393 91.5041 91.9894 90.6374L82.2561 71.8869C81.9465 71.2905 82.3015 70.5645 82.9624 70.4428L120.332 63.5587C121.423 63.3576 121.423 61.7929 120.332 61.5918L82.9595 54.7068C82.2986 54.5851 81.9437 53.8591 82.2533 53.2626L91.9894 34.5082C92.4393 33.6415 91.5078 32.71 90.6412 33.1599L71.8876 42.896C71.2912 43.2056 70.5652 42.8506 70.4434 42.1896L63.5585 4.81882C63.3573 3.72706 61.7927 3.72707 61.5916 4.81883L54.7075 42.1877Z" fill="#D8C5FF"/>
</mask>
<g mask="url(#mask0_444_2)">
<path d="M53.2633 42.8941L51.8811 45.5567L33.1298 35.8225L34.512 33.1599L35.8942 30.4973L54.6455 40.2315L53.2633 42.8941ZM33.1637 34.5082L35.8262 33.1258L45.5639 51.8801L42.9014 53.2626L40.2389 54.645L30.5012 35.8907L33.1637 34.5082ZM42.1951 54.7068L42.7386 57.6572L5.36232 64.5422L4.81883 61.5919L4.27535 58.6415L41.6516 51.7565L42.1951 54.7068ZM4.81883 63.5588L5.36234 60.6084L42.7357 67.4934L42.1922 70.4437L41.6487 73.3941L4.27531 66.5091L4.81883 63.5588ZM42.8985 71.888L45.5611 73.2704L35.8263 92.0196L33.1638 90.6373L30.5013 89.2549L40.236 70.5056L42.8985 71.888ZM34.5121 91.9856L33.1297 89.323L51.88 79.5882L53.2623 82.2507L54.6447 84.9133L35.8944 94.6481L34.5121 91.9856ZM54.7065 82.9571L57.6569 82.4136L64.5419 119.788L61.5916 120.332L58.6412 120.875L51.7562 83.5006L54.7065 82.9571ZM63.5585 120.332L60.6081 119.788L67.494 82.4116L70.4444 82.9551L73.3947 83.4987L66.5088 120.875L63.5585 120.332ZM71.8887 82.2488L73.2711 79.5863L92.0236 89.3231L90.6411 91.9856L89.2587 94.6481L70.5062 84.9113L71.8887 82.2488ZM91.9895 90.6374L89.3269 92.0196L79.5935 73.2691L82.2562 71.8869L84.9188 70.5048L94.6521 89.2552L91.9895 90.6374ZM82.9625 70.4428L82.419 67.4924L119.788 60.6084L120.332 63.5587L120.875 66.5091L83.5061 73.3931L82.9625 70.4428ZM120.332 61.5918L119.788 64.5422L82.4161 57.6572L82.9596 54.7068L83.5032 51.7565L120.875 58.6415L120.332 61.5918ZM82.2533 53.2626L79.5907 51.8804L89.3269 33.1259L91.9895 34.5082L94.6521 35.8904L84.9159 54.6449L82.2533 53.2626ZM90.6412 33.1599L92.0235 35.8225L73.2699 45.5585L71.8876 42.896L70.5053 40.2334L89.2589 30.4973L90.6412 33.1599ZM70.4434 42.1896L67.4931 42.7332L60.6081 5.36238L63.5585 4.81882L66.5088 4.27527L73.3938 41.6461L70.4434 42.1896ZM61.5916 4.81883L64.5419 5.36234L57.6579 42.7312L54.7075 42.1877L51.7572 41.6442L58.6412 4.27532L61.5916 4.81883ZM63.5585 4.81882L60.6081 5.36238C61.0104 7.54584 64.1397 7.54593 64.5419 5.36234L61.5916 4.81883L58.6412 4.27532C59.4457 -0.0918059 65.7043 -0.0917211 66.5088 4.27527L63.5585 4.81882ZM71.8876 42.896L73.2699 45.5585C70.8841 46.7972 67.9801 45.3769 67.4931 42.7332L70.4434 42.1896L73.3938 41.6461C73.1503 40.3243 71.6982 39.6141 70.5053 40.2334L71.8876 42.896ZM91.9895 34.5082L89.3269 33.1259C88.427 34.8592 90.2901 36.7223 92.0235 35.8225L90.6412 33.1599L89.2589 30.4973C92.7255 28.6976 96.4517 32.4238 94.6521 35.8904L91.9895 34.5082ZM82.9596 54.7068L82.4161 57.6572C79.7725 57.1702 78.3521 54.2662 79.5907 51.8804L82.2533 53.2626L84.9159 54.6449C85.5352 53.452 84.825 52 83.5032 51.7565L82.9596 54.7068ZM120.332 63.5587L119.788 60.6084C117.605 61.0106 117.605 64.1399 119.788 64.5422L120.332 61.5918L120.875 58.6415C125.242 59.446 125.242 65.7046 120.875 66.5091L120.332 63.5587ZM82.2562 71.8869L79.5935 73.2691C78.3551 70.8833 79.7754 67.9794 82.419 67.4924L82.9625 70.4428L83.5061 73.3931C84.8279 73.1496 85.538 71.6977 84.9188 70.5048L82.2562 71.8869ZM90.6411 91.9856L92.0236 89.3231C90.2903 88.4231 88.4271 90.2862 89.3269 92.0196L91.9895 90.6374L94.6521 89.2552C96.4517 92.722 92.7253 96.448 89.2587 94.6481L90.6411 91.9856ZM70.4444 82.9551L67.494 82.4116C67.9811 79.7678 70.8853 78.3476 73.2711 79.5863L71.8887 82.2488L70.5062 84.9113C71.6991 85.5307 73.1512 84.8206 73.3947 83.4987L70.4444 82.9551ZM61.5916 120.332L64.5419 119.788C64.1397 117.605 61.0104 117.605 60.6081 119.788L63.5585 120.332L66.5088 120.875C65.7043 125.242 59.4457 125.242 58.6412 120.875L61.5916 120.332ZM53.2623 82.2507L51.88 79.5882C54.2658 78.3495 57.1699 79.7698 57.6569 82.4136L54.7065 82.9571L51.7562 83.5006C51.9997 84.8225 53.4518 85.5326 54.6447 84.9133L53.2623 82.2507ZM33.1638 90.6373L35.8263 92.0196C36.7263 90.2863 34.8631 88.4231 33.1297 89.323L34.5121 91.9856L35.8944 94.6481C32.4277 96.448 28.7013 92.7216 30.5013 89.2549L33.1638 90.6373ZM42.1922 70.4437L42.7357 67.4934C45.3795 67.9804 46.7998 70.8845 45.5611 73.2704L42.8985 71.888L40.236 70.5056C39.6167 71.6985 40.3268 73.1506 41.6487 73.3941L42.1922 70.4437ZM4.81883 61.5919L5.36232 64.5422C7.54594 64.14 7.54584 61.0107 5.36234 60.6084L4.81883 63.5588L4.27531 66.5091C-0.0917318 65.7046 -0.0918233 59.446 4.27535 58.6415L4.81883 61.5919ZM42.9014 53.2626L45.5639 51.8801C46.8027 54.266 45.3824 57.1702 42.7386 57.6572L42.1951 54.7068L41.6516 51.7565C40.3297 52 39.6196 53.4521 40.2389 54.645L42.9014 53.2626ZM34.512 33.1599L33.1298 35.8225C34.8631 36.7223 36.7262 34.8591 35.8262 33.1258L33.1637 34.5082L30.5012 35.8907C28.7013 32.424 32.4274 28.6976 35.8942 30.4973L34.512 33.1599ZM53.2633 42.8941L54.6455 40.2315C53.4526 39.6122 52.0007 40.3224 51.7572 41.6442L54.7075 42.1877L57.6579 42.7312C57.1709 45.3749 54.2669 46.7952 51.8811 45.5567L53.2633 42.8941Z" fill="white"/>
</g>
<path d="M54.7075 42.1877C54.5858 42.8486 53.8598 43.2037 53.2633 42.8941L34.512 33.1599C33.6453 32.71 32.7137 33.6416 33.1637 34.5082L42.9014 53.2626C43.2111 53.859 42.8561 54.5851 42.1951 54.7068L4.81883 61.5919C3.72706 61.793 3.72705 63.3576 4.81883 63.5588L42.1922 70.4437C42.8531 70.5655 43.2082 71.2915 42.8985 71.888L33.1638 90.6373C32.7138 91.5039 33.6454 92.4355 34.5121 91.9856L53.2623 82.2507C53.8588 81.9411 54.5848 82.2961 54.7065 82.9571L61.5916 120.332C61.7927 121.423 63.3573 121.423 63.5585 120.332L70.4444 82.9551C70.5662 82.2942 71.2921 81.9391 71.8886 82.2488L90.641 91.9856C91.5077 92.4356 92.4393 91.5041 91.9894 90.6374L82.2561 71.8869C81.9465 71.2905 82.3015 70.5645 82.9624 70.4428L120.332 63.5587C121.423 63.3576 121.423 61.7929 120.332 61.5918L82.9595 54.7068C82.2986 54.5851 81.9437 53.8591 82.2533 53.2626L91.9894 34.5082C92.4393 33.6415 91.5078 32.71 90.6412 33.1599L71.8876 42.896C71.2912 43.2056 70.5652 42.8506 70.4434 42.1896L63.5585 4.81882C63.3573 3.72706 61.7927 3.72707 61.5916 4.81883L54.7075 42.1877Z" fill="#D8C5FF"/>
</svg>
